<svg width="16" height="16" viewBox="0 0 16 16" fill="none" xmlns="http://www.w3.org/2000/svg">
<path fill-rule="evenodd" clip-rule="evenodd" d="M13.25 4.25C14.0784 4.25 14.75 4.92157 14.75 5.75V13.25C14.75 14.0784 14.0784 14.75 13.25 14.75H2.75C1.92157 14.75 1.25 14.0784 1.25 13.25V2.75C1.25 3.57843 1.92157 4.25 2.75 4.25L13.25 4.25ZM11.375 11.375C12.4105 11.375 13.25 10.5355 13.25 9.5C13.25 8.46447 12.4105 7.625 11.375 7.625C10.3395 7.625 9.5 8.46447 9.5 9.5C9.5 10.5355 10.3395 11.375 11.375 11.375Z" fill="#F6F6F6"/>
<path d="M1.25 2.75V13.25C1.25 14.0784 1.92157 14.75 2.75 14.75H13.25C14.0784 14.75 14.75 14.0784 14.75 13.25V5.75C14.75 4.92157 14.0784 4.25 13.25 4.25L2.75 4.25C1.92157 4.25 1.25 3.57843 1.25 2.75ZM1.25 2.75C1.25 1.92157 1.92157 1.25 2.75 1.25H11.75M13.25 9.5C13.25 10.5355 12.4105 11.375 11.375 11.375C10.3395 11.375 9.5 10.5355 9.5 9.5C9.5 8.46447 10.3395 7.625 11.375 7.625C12.4105 7.625 13.25 8.46447 13.25 9.5Z" stroke="#F6F6F6" stroke-width="1.5" stroke-linecap="round" stroke-linejoin="round"/>
</svg>
