<?xml version="1.0" encoding="UTF-8"?>
<svg data-bbox="718.5 488.191 1516.635 1729.384" viewBox="0 0 3000 3000" height="4000" width="4000" xmlns="http://www.w3.org/2000/svg" data-type="shape">
    <g>
        <path d="M997.7 490.3c-13.5 4.7-19.7 14.2-20.4 31.2-.4 8.8-.2 10.6 1.7 15 3.5 7.6 11.1 14.6 19.7 18 6.2 2.4 8.1 2.7 13.6 2.2 17.7-1.6 28.9-11.4 32.8-28.5 1.1-5.2-.2-14.3-3.2-21.3-2.6-5.9-10-13.2-16.4-16-7.6-3.4-19.1-3.6-27.8-.6z"/>
        <path d="M1368.5 581.1c-10.5 4.3-18.4 12.5-23.1 24-2.4 5.9-2.4 6.2-.9 12 4.1 16.3 17.7 28.3 31.8 28.2 17.8 0 33.6-15 34-32.1.3-11.7-8.4-24.2-21.1-30.4-7.9-3.9-14-4.4-20.7-1.7z"/>
        <path d="M1526.3 704.4c-9.3 3-15.9 7.3-22.8 14.8-6.5 7-9.4 12.2-12.9 23.9-3 9.8-3.3 17.4-1 26.3 4.8 18.8 17.5 33.6 35.1 40.9 7.3 3 8.5 3.2 19.3 3.1 13.9-.1 21.9-2.5 33-9.9 8.4-5.6 13.9-12.2 18.9-22.5l3.6-7.5v-32.2l-4.4-8.9c-3-6-6.1-10.5-9.6-13.9-12-11.7-21.5-15.6-40-16.1-10.4-.3-12.9 0-19.2 2z"/>
        <path d="M1285.2 729.5c-8.1 4.1-11.3 7.5-15.5 16.3-3.4 7.2-3.8 15-1.3 22.1 2.3 6.3 9 14.7 14.3 18.1 8.7 5.5 23.7 6 31.8 1 4.9-3 12.4-11.5 14.8-16.8 1.6-3.5 2.2-6.7 2.2-12.2 0-13.6-7.2-24.3-19.8-29.3-10-4-17.3-3.8-26.5.8z"/>
        <path d="M892.1 759c-9.5 3.4-17.2 9.9-20.7 17.5-2 4.1-2.4 6.7-2.4 14.3 0 8 .4 10 2.6 14.4 3.6 7.2 11.2 14.2 17.4 16.3 6.7 2.2 18.9 1.7 24.4-1 5.1-2.5 13.8-11 16.5-16.2 2.9-5.8 3-19.8 0-26.2-3.5-7.9-8.3-12.7-17-17.1-9.2-4.5-12.7-4.9-20.8-2z"/>
        <path d="M1583.1 867.4c-.6.7-4.2 1.6-8 2-9.1.9-23.7 4.9-30.3 8.2-9.4 4.7-22.1 14.1-29.4 21.6-11.7 12.1-16.8 20.7-22.7 38.1-5.1 15.1-5.1 15.2-5.1 27.7.1 8.8.8 16.3 2.5 25.5 1.7 9.3 2.4 16.5 2.4 25.5 0 11.5-.3 13.5-3.8 25.4-8.1 28-24.5 51.2-46.1 65.6-16.2 10.8-32.6 16.6-54.6 19.5-10.1 1.3-12.7 1.4-21 .1-13.1-2-21-4.1-31-8.3-22.6-9.6-33.8-18.9-51.2-42.3-9.1-12.2-10.9-14.1-22.8-24-19.6-16.3-44.3-28-67.8-32-14.5-2.4-37.6-2.7-52-.5-22 3.3-50.7 16.3-66.8 30.4-2.3 2-6 5.1-8.3 7-4.8 3.8-17.8 19.2-22.6 26.6-8.1 12.7-16.3 31-20.4 45.8l-4.1 14.8v18.7c0 21 1.1 29.3 6 44.7 8.4 26.2 18.6 42.9 38 62 26.7 26.2 38 53.9 38 93 0 25.2-2.4 36.5-11.9 56.9-10.3 22-22.3 36.6-39.1 47.8-21.9 14.5-42.6 21-66 20.7-13.2-.1-22.2 1.1-33.2 4.6-20.7 6.6-35.2 16.3-47.5 31.6-7.4 9.3-11.1 15.4-15 24.9-4.3 10.4-5.1 13.8-6.7 27.2-1.2 9.8-1.2 13.3-.1 23 1.8 15.3 6.2 26.9 16.2 42.8 7.6 12 27.6 28.9 41.6 35 7.4 3.2 27.6 7.2 40.2 7.9l12 .6 2.2 12c1.2 6.6 2.9 15.1 3.8 19 .9 3.8 2.9 12.8 4.5 20 8.3 38.7 28.9 95.3 49.7 137 23.5 47 57.1 96.1 93.5 136.7 12.2 13.7 32.9 34.7 40.5 41.2 3.9 3.3 12.9 11.2 20 17.5 7 6.2 15.1 13 17.8 15 2.8 2.1 10.2 7.6 16.6 12.4 13.4 10 48.8 33.1 56.9 37.2 3 1.5 8.7 4.6 12.5 6.9 8 4.7 48 24.1 57 27.6 3.3 1.3 11.4 4.6 18 7.3 14.9 6.2 44.6 16 56.8 18.8 5.1 1.1 13.7 3.4 19.2 5 15.1 4.4 25.7 6.6 39.6 8.3 7 .9 19.2 2.8 27 4.2 7.9 1.5 18.9 2.9 24.4 3.1 5.5.3 10.6 1 11.4 1.6 2 1.7 93.5 1.7 95.2 0 .8-.8 4.1-1.3 8.3-1.3 3.9 0 12.1-1 18.1-2.1 17.5-3.2 21.1-3.8 37-5.9 8.3-1.2 19.3-3.2 24.5-4.5 56.4-14.1 95.6-27.8 138.5-48.5 10.2-4.9 43-22.9 51.5-28.3 26.5-16.6 52.7-35 63.6-44.6 2.3-2 7-5.9 10.4-8.6 6.1-4.8 30.3-26.1 40.3-35.5 5.1-4.8 19.4-20.7 34.8-38.5 28.3-32.9 47.4-60.4 73.1-105 18.9-32.7 46.5-101.8 54.3-135.6.9-4.1 3.9-16.6 6.6-27.9 4.7-19.7 8.9-45.5 8.9-54.6 0-2.3.4-5.4 1-6.9.5-1.4 1.1-5.7 1.2-9.6.1-3.8.5-7.2.9-7.4.4-.3 1-6.7 1.4-14.2.4-7.6 1-14.2 1.2-14.6.7-1.1.5-55.9-.2-56.5-.3-.3-.5-3.9-.6-8.1 0-8-.5-12.9-3.3-35.1-1-7.4-2.6-20.3-3.6-28.5-1-8.3-3.6-22.4-5.8-31.5-2.2-9.1-5.3-22.4-7-29.5-4-16.6-12.1-43.1-17.2-56-2.2-5.5-6-15.3-8.5-21.7-11.3-29.1-38.6-80.2-57.9-108.4-17.6-25.8-29.7-41.8-47.2-62.5-7.7-9.1-57.6-59.1-63.5-63.6-2-1.6-10.4-8.2-18.6-14.9-21.3-17.1-39.1-29.8-60.7-43.3-29.5-18.5-61.2-34.5-97.8-49.5-19-7.8-30.6-11.6-61.8-20.5-27.1-7.8-35.7-9.7-76-16.9l-20.5-3.7-.6-12.5c-.5-10.5-1.1-14-3.9-22-5.5-16-13-28.8-23.4-39.9-6.3-6.7-22.6-17.8-32.1-21.8-6.5-2.8-20.1-5.9-29.3-6.8-4-.4-7.9-1.3-8.7-2.1-1.7-1.7-2-1.7-3.4 0zM1266 1272c14.1.1 49.9 8 67.7 15.1 15.8 6.2 40.7 20.4 50.4 28.6 15.8 13.4 36 30.3 49.9 41.7 8.5 7 20.2 16.7 26 21.6 19 15.9 70.3 58.4 82.5 68.3 6.6 5.3 16.3 13.3 21.5 17.8 5.2 4.4 16.3 13.5 24.5 20.2 8.3 6.6 17.1 13.9 19.6 16.1 10.8 9.7 18.6 16.4 23.5 20.1 17.8 13.7 58 46.7 72.3 59.6 5.3 4.7 15.2 13.2 22.1 18.9 42.1 34.5 42.7 35 44.8 35 1.4 0 1.4.5-.4-85.2-.5-22.1-.3-31.2.5-32.1.8-1 1.1-18 1-58.9 0-64.7-.3-61.5 7.8-81.3 5.7-14 8.9-19.8 17.6-31.3 9.5-12.7 15.9-19.5 27.1-28.6 26.2-21.3 59.8-36.1 97.6-43.2 16.5-3.1 36.2-4.3 38.5-2.4 1.3 1.1 1.5 18.9 1.4 164.4-.1 89.7-.5 240.3-.8 334.6l-.6 171.5-17.6-.2c-18.9-.1-25.1-1.2-49-8.3-15.1-4.4-19.9-6.4-34.4-13.7-14.9-7.5-27.3-15.8-41-27.6-5.3-4.5-12.5-10.5-16-13.3-3.5-2.9-15.8-13-27.2-22.5-11.4-9.5-23.6-19.6-26.9-22.3-3.4-2.8-9.2-7.7-13-10.8-3.8-3.1-14.8-12.1-24.4-19.9-9.6-7.9-26.7-21.9-38-31.3-11.2-9.4-22.1-18.5-24.1-20.1-2.1-1.7-10.2-8.4-18.1-15-7.8-6.6-20.3-17-27.7-23-15.1-12.4-33.5-27.6-53.6-44.5-7.6-6.3-17.6-14.6-22.4-18.3-4.7-3.8-10.7-8.5-13.3-10.5-2.5-2-9.7-8-16-13.2-6.2-5.3-13.3-11.1-15.8-13-2.5-1.9-11.6-9.5-20.3-17-18.1-15.5-21.6-18.2-22.8-17.4-.5.3-.9 50.4-.9 114.7l-.1 114.2-2.4 11.8c-2 10-3.4 14-8.9 25.1-9.4 19-13.4 24.6-27 38.4-17.6 17.9-26.6 24.2-53.1 37.5-11.2 5.5-17.8 8-33 12.3-23.8 6.8-33.4 8.4-51.1 8.4h-14.2l-.7-61.3c-.9-79.8-.2-608.3.8-609.3 1.2-1.2 9.1-2.1 10.2-1.2.5.4 3.8.8 7.5.8z"/>
        <path d="M998.5 911.2c-17.2 3.2-35.7 19.9-41.5 37.3-1.9 5.8-2.1 8.1-1.7 20.3.2 7.5.9 15.4 1.6 17.4 2.9 9.3 18.6 27 27.6 31.2 2.7 1.3 7.7 2.7 11 3.1 3.3.4 7.6 1.1 9.5 1.6 5.5 1.4 23.1-1.7 30.9-5.5 12.3-5.9 23-18.2 27.7-31.8 3.2-9.6 3.4-24.9.3-34.1-5.5-16.3-14.2-26.8-28.1-33.6-13.7-6.7-24.2-8.4-37.3-5.9z"/>
        <path d="M1360 926.9c-6.8 1.9-20 8.7-27.9 14.5-12.9 9.5-23.6 25.5-27.7 41.5-1.3 5.1-1.5 10-1.2 24 .5 20.6 1.4 23.7 10.7 37.8 10.2 15.4 20.8 24.2 37.8 31.3 9.3 3.9 19.3 5.3 33.3 4.7 14.2-.6 22.1-2.9 34.7-10.3 15.4-9 26-20.7 32.8-35.9 4.3-9.7 5.5-16.7 5.5-32.3 0-16.1-.9-20.1-8.3-35.2-3.5-7-5.9-10.2-14.2-18.6-8.7-8.7-11.3-10.8-20.1-15.2-5.6-2.8-12.8-5.8-16-6.7-8.4-2.2-30.8-1.9-39.4.4z"/>
        <path d="M798 972.5c-9.4 3-17.9 11.7-21.5 21.8-3.4 9.4-.3 23.9 6.9 32.4 1.5 1.8 5.8 4.7 9.4 6.5 5.6 2.7 7.8 3.2 13.2 3.2 12.8-.2 24.9-7.6 30.8-18.9 2.2-4.2 2.6-6.3 2.7-13 0-6.7-.5-9-2.9-14.3-6.7-14.4-24.1-22.4-38.6-17.7z"/>
        <path d="M759.8 1197.6c-8.9 2.1-15.2 5.8-23.8 14-6.2 6-8.9 9.5-12.7 16.7l-4.8 9.2v14c0 15.6.4 17.1 7.8 29.5 6.6 11 15.4 18.6 27.7 24 5 2.3 6.7 2.5 19.5 2.4 11.6-.1 15.1-.5 20.5-2.4 11.2-3.8 23.4-14.2 29.7-25.1 4.9-8.5 6.3-14.5 6.3-26.2-.1-13.3-1-17.8-5.6-27.4-6.4-13.5-21.8-25.9-35.8-28.9-7.8-1.7-21.5-1.6-28.8.2z"/>
        <path d="M976 1283.6c-1.9.7-5.3 1.3-7.6 1.3-4.8.1-15.5 3.6-23.9 7.9-12.2 6.1-28.4 22.4-34.9 35-.9 1.8-2.8 7.9-4.2 13.5-3.6 14.3-3.8 32.8-.4 43.7 5.6 18.2 14.3 30.3 30.5 42.5 10.5 7.8 15.8 10.1 28.5 12 17.8 2.7 35.1 1 48.3-4.9 8.5-3.7 19.6-11.7 26.3-18.8 6.7-7.2 12.7-18 16.9-30.5 2.6-7.8 2.7-8.7 2.2-24-.4-14.5-.7-16.5-3.4-23.8-6.1-16.3-12.3-25.3-24-35-10.8-8.9-29.3-17.5-37.8-17.5-2.2-.1-5.8-.7-8-1.5s-4.2-1.4-4.5-1.4c-.3.1-2.1.7-4 1.5z"/>
    </g>
</svg>
