<svg width="17" height="19" viewBox="0 0 17 19" fill="none" xmlns="http://www.w3.org/2000/svg">
<path d="M12 8.6026C12 7.47101 11.5786 6.38577 10.8284 5.58562C10.0783 4.78546 9.06087 4.33594 8 4.33594C6.93913 4.33594 5.92172 4.78546 5.17157 5.58562C4.42143 6.38577 4 7.47101 4 8.6026C4 13.5804 2 15.0026 2 15.0026H14C14 15.0026 12 13.5804 12 8.6026Z" fill="white" stroke="white" stroke-width="1.33" stroke-linecap="round" stroke-linejoin="round"/>
<path d="M9.15335 17C9.03615 17.2021 8.86795 17.3698 8.66548 17.4863C8.46308 17.6029 8.23361 17.6643 8.00001 17.6643C7.76641 17.6643 7.53695 17.6029 7.33455 17.4863C7.13215 17.3698 6.96388 17.2021 6.84668 17" stroke="white" stroke-width="1.33" stroke-linecap="round" stroke-linejoin="round"/>
<circle cx="12.5" cy="4.61719" r="3.125" fill="#FF82FC" stroke="#292929" stroke-width="1.25"/>
</svg>
