<svg width="17" height="17" viewBox="0 0 17 17" fill="none" xmlns="http://www.w3.org/2000/svg">
<g clip-path="url(#clip0_5294_13723)">
<path d="M12.1836 5.9112C12.1836 4.7796 11.7622 3.69436 11.012 2.89421C10.2619 2.09405 9.24446 1.64453 8.18359 1.64453C7.12273 1.64453 6.10531 2.09405 5.35517 2.89421C4.60502 3.69436 4.18359 4.7796 4.18359 5.9112C4.18359 10.889 2.18359 12.3112 2.18359 12.3112H14.1836C14.1836 12.3112 12.1836 10.889 12.1836 5.9112Z" fill="white" stroke="white" stroke-width="1.33" stroke-linecap="round" stroke-linejoin="round"/>
<path d="M9.33694 14.3105C9.21974 14.5126 9.05154 14.6803 8.84907 14.7969C8.64667 14.9135 8.41721 14.9749 8.18361 14.9749C7.95001 14.9749 7.72054 14.9135 7.51814 14.7969C7.31574 14.6803 7.14747 14.5126 7.03027 14.3105" stroke="white" stroke-width="1.33" stroke-linecap="round" stroke-linejoin="round"/>
</g>
<defs>
<clipPath id="clip0_5294_13723">
<rect width="16" height="16" fill="white" transform="translate(0.183594 0.310547)"/>
</clipPath>
</defs>
</svg>
