<svg width="16" height="16" viewBox="0 0 16 16" fill="none" xmlns="http://www.w3.org/2000/svg">
<g clip-path="url(#clip0_5345_72488)">
<path d="M5.3335 14.3359C5.3335 14.52 5.18426 14.6693 5.00016 14.6693C4.81607 14.6693 4.66683 14.52 4.66683 14.3359C4.66683 14.1518 4.81607 14.0026 5.00016 14.0026C5.18426 14.0026 5.3335 14.1518 5.3335 14.3359Z" fill="#F6F6F6"/>
<path d="M11.3335 14.3359C11.3335 14.52 11.1843 14.6693 11.0002 14.6693C10.8161 14.6693 10.6668 14.52 10.6668 14.3359C10.6668 14.1518 10.8161 14.0026 11.0002 14.0026C11.1843 14.0026 11.3335 14.1518 11.3335 14.3359Z" fill="#F6F6F6"/>
<path d="M3.04181 7.33568C3.08583 8.03996 3.10784 8.39211 3.259 8.65924C3.39207 8.89441 3.59345 9.0836 3.83646 9.20174C4.1125 9.33594 4.46533 9.33594 5.17099 9.33594H12.0907C12.766 9.33594 13.1036 9.33594 13.3723 9.21005C13.6091 9.09915 13.808 8.9211 13.9444 8.69804C14.0992 8.44482 14.1365 8.10927 14.211 7.43819L14.601 3.92817C14.6238 3.72319 14.6352 3.6207 14.6022 3.54138C14.5733 3.47171 14.5216 3.41392 14.4555 3.37745C14.3803 3.33594 14.2772 3.33594 14.071 3.33594H2.79183L3.04181 7.33568Z" fill="#F6F6F6"/>
<path d="M1.3335 1.33594H2.16579C2.3422 1.33594 2.43041 1.33594 2.49942 1.36949C2.56017 1.39902 2.61052 1.44632 2.64379 1.50511C2.68158 1.57189 2.68708 1.65993 2.69808 1.836L3.30224 11.5025C3.31325 11.6786 3.31875 11.7666 3.35654 11.8334C3.38981 11.8922 3.44015 11.9395 3.5009 11.9691C3.56991 12.0026 3.65812 12.0026 3.83454 12.0026H12.6668M5.00016 14.3359H5.00683M11.0002 14.3359H11.0068M12.0907 9.33594H5.17099C4.46533 9.33594 4.1125 9.33594 3.83646 9.20174C3.59345 9.0836 3.39207 8.89441 3.259 8.65924C3.10784 8.39211 3.08583 8.03996 3.04181 7.33568L2.79183 3.33594H14.071C14.2772 3.33594 14.3803 3.33594 14.4555 3.37746C14.5216 3.41392 14.5733 3.47171 14.6022 3.54138C14.6352 3.6207 14.6238 3.72319 14.601 3.92817L14.211 7.43819C14.1365 8.10927 14.0992 8.44482 13.9444 8.69804C13.808 8.9211 13.6091 9.09915 13.3723 9.21005C13.1036 9.33594 12.766 9.33594 12.0907 9.33594ZM5.3335 14.3359C5.3335 14.52 5.18426 14.6693 5.00016 14.6693C4.81607 14.6693 4.66683 14.52 4.66683 14.3359C4.66683 14.1518 4.81607 14.0026 5.00016 14.0026C5.18426 14.0026 5.3335 14.1518 5.3335 14.3359ZM11.3335 14.3359C11.3335 14.52 11.1843 14.6693 11.0002 14.6693C10.8161 14.6693 10.6668 14.52 10.6668 14.3359C10.6668 14.1518 10.8161 14.0026 11.0002 14.0026C11.1843 14.0026 11.3335 14.1518 11.3335 14.3359Z" stroke="#F6F6F6" stroke-width="1.33333" stroke-linecap="round" stroke-linejoin="round"/>
</g>
<defs>
<clipPath id="clip0_5345_72488">
<rect width="16" height="16" fill="white"/>
</clipPath>
</defs>
</svg>
