<svg width="22" height="22" viewBox="0 0 22 22" xmlns="http://www.w3.org/2000/svg">
<path d="M11 0.5C5.201 0.5 0.5 5.201 0.5 11C0.5 16.799 5.201 21.5 11 21.5C16.799 21.5 21.5 16.799 21.5 11C21.5 5.201 16.799 0.5 11 0.5ZM15.5697 15.7384C15.4362 15.9668 15.196 16.0942 14.9491 16.0942C14.8261 16.0942 14.7015 16.0626 14.5875 15.996C12.7007 14.8933 10.5209 14.7161 9.02415 14.7616C7.3662 14.812 6.15036 15.1393 6.13828 15.1427C5.75609 15.2471 5.36113 15.0222 5.25629 14.64C5.1515 14.2579 5.37562 13.8632 5.75761 13.758C5.81241 13.7429 7.12078 13.3876 8.94018 13.3275C10.0119 13.2922 11.0436 13.3669 12.0062 13.5495C13.2255 13.7808 14.3377 14.1868 15.3121 14.7562C15.6545 14.9563 15.7698 15.3961 15.5697 15.7384ZM16.9046 12.9659C16.7465 13.2366 16.4619 13.3874 16.1695 13.3875C16.0238 13.3875 15.8761 13.35 15.7412 13.2711C13.5062 11.9649 10.9241 11.7551 9.15123 11.809C7.18731 11.8687 5.7471 12.2564 5.73281 12.2603C5.28021 12.3838 4.81228 12.1176 4.6881 11.665C4.56396 11.2123 4.82947 10.7448 5.28193 10.6202C5.34684 10.6023 6.89661 10.1813 9.05175 10.1103C10.3213 10.0684 11.5433 10.1569 12.6836 10.3732C14.1279 10.6472 15.4453 11.1281 16.5994 11.8025C17.005 12.0395 17.1417 12.5604 16.9046 12.9659ZM17.7252 10.4451C17.5464 10.4451 17.3653 10.3991 17.1998 10.3024C11.8863 7.19708 4.99358 9.0432 4.92459 9.06225C4.36906 9.21531 3.79477 8.88906 3.64176 8.33358C3.4887 7.7781 3.81495 7.20376 4.37043 7.05075C4.45003 7.0288 6.351 6.51246 8.99449 6.4253C10.5518 6.37403 12.0507 6.48246 13.4493 6.74777C15.2209 7.08385 16.837 7.6737 18.2526 8.50103C18.75 8.79173 18.9176 9.43064 18.6269 9.92808C18.4329 10.26 18.0838 10.4451 17.7252 10.4451Z" fill="#E1E1E1"/>
</svg>
