<svg width="11" height="11" viewBox="0 0 11 11" fill="none" xmlns="http://www.w3.org/2000/svg">
<path fill-rule="evenodd" clip-rule="evenodd" d="M0.590909 5.50781C0.590909 2.7966 2.78878 0.598722 5.5 0.598722C8.21122 0.598722 10.4091 2.7966 10.4091 5.50781C10.4091 8.21903 8.21122 10.4169 5.5 10.4169C2.78878 10.4169 0.590909 8.21903 0.590909 5.50781ZM4.95455 3.32599C4.95455 3.02475 5.19875 2.78054 5.5 2.78054H5.50545C5.8067 2.78054 6.05091 3.02475 6.05091 3.32599C6.05091 3.62724 5.8067 3.87145 5.50545 3.87145H5.5C5.19875 3.87145 4.95455 3.62724 4.95455 3.32599ZM5.5 4.96236C5.80125 4.96236 6.04545 5.20657 6.04545 5.50781V7.68963C6.04545 7.99088 5.80125 8.23509 5.5 8.23509C5.19875 8.23509 4.95455 7.99088 4.95455 7.68963V5.50781C4.95455 5.20657 5.19875 4.96236 5.5 4.96236Z" fill="#666666"/>
</svg>
