<svg width="16" height="16" viewBox="0 0 16 16" fill="none" xmlns="http://www.w3.org/2000/svg">
<g clip-path="url(#clip0_5345_72480)">
<path d="M5.99968 11.3359C4.89629 11.3359 3.94942 12.0061 3.54387 12.9615C4.72468 14.0232 6.28673 14.6693 7.99968 14.6693C9.71262 14.6693 11.2747 14.0232 12.4555 12.9615C12.0499 12.0061 11.1031 11.3359 9.99968 11.3359H5.99968Z" fill="#F6F6F6"/>
<path d="M10.6663 6.33594C10.6663 7.8087 9.47243 9.00261 7.99968 9.00261C6.52692 9.00261 5.33301 7.8087 5.33301 6.33594C5.33301 4.86318 6.52692 3.66927 7.99968 3.66927C9.47243 3.66927 10.6663 4.86318 10.6663 6.33594Z" fill="#F6F6F6"/>
<path d="M7.99968 14.6693C11.6816 14.6693 14.6663 11.6845 14.6663 8.00261C14.6663 4.32071 11.6816 1.33594 7.99968 1.33594C4.31778 1.33594 1.33301 4.32071 1.33301 8.00261C1.33301 11.6845 4.31778 14.6693 7.99968 14.6693ZM7.99968 14.6693C6.28673 14.6693 4.72468 14.0232 3.54387 12.9615C3.94942 12.0061 4.89629 11.3359 5.99968 11.3359H9.99968C11.1031 11.3359 12.0499 12.0061 12.4555 12.9615C11.2747 14.0232 9.71262 14.6693 7.99968 14.6693ZM10.6663 6.33594C10.6663 7.8087 9.47244 9.00261 7.99968 9.00261C6.52692 9.00261 5.33301 7.8087 5.33301 6.33594C5.33301 4.86318 6.52692 3.66927 7.99968 3.66927C9.47244 3.66927 10.6663 4.86318 10.6663 6.33594Z" stroke="#F6F6F6" stroke-width="1.33333" stroke-linecap="round" stroke-linejoin="round"/>
</g>
<defs>
<clipPath id="clip0_5345_72480">
<rect width="16" height="16" fill="white"/>
</clipPath>
</defs>
</svg>
