<svg width="25" height="25" viewBox="0 0 25 25" fill="none" xmlns="http://www.w3.org/2000/svg">
<path d="M4.88037 21.2092V3.65489C4.88037 3.20044 5.20273 2.83203 5.60037 2.83203H8.96037C9.35801 2.83203 9.68037 3.20044 9.68037 3.65489V21.2092C9.68037 21.6637 9.35801 22.032 8.96037 22.032H5.60037C5.20273 22.032 4.88037 21.6637 4.88037 21.2092Z" fill="#F1F1F1"/>
<path d="M14.4805 21.2092V3.65489C14.4805 3.20044 14.8028 2.83203 15.2005 2.83203H18.5605C18.9581 2.83203 19.2805 3.20044 19.2805 3.65489V21.2092C19.2805 21.6637 18.9581 22.032 18.5605 22.032H15.2005C14.8028 22.032 14.4805 21.6637 14.4805 21.2092Z" fill="#F1F1F1"/>
</svg>