<svg width="21" height="21" viewBox="0 0 21 21" fill="none" xmlns="http://www.w3.org/2000/svg">
<g clip-path="url(#clip0_213_30842)">
<path d="M17.3691 6.33203C17.3691 6.33203 18.7358 7.69872 18.7358 9.97653C18.7358 12.2543 17.3691 13.621 17.3691 13.621" stroke="#FAFAFA" stroke-width="1.5" stroke-linecap="round" stroke-linejoin="round"/>
<path d="M1.4248 12.124V8.73987C1.4248 7.73343 2.24065 6.91758 3.24706 6.91758H5.88932C6.06762 6.91758 6.242 6.86526 6.39086 6.76711L11.8567 3.16321C12.4625 2.76379 13.2694 3.19826 13.2694 3.92387V16.94C13.2694 17.6655 12.4625 18.1 11.8567 17.7006L6.39086 14.0967C6.242 13.9986 6.06762 13.9462 5.88932 13.9462H3.24706C2.24065 13.9462 1.4248 13.1304 1.4248 12.124Z" stroke="#FAFAFA" stroke-width="1.5"/>
</g>
<defs>
<clipPath id="clip0_213_30842">
<rect width="20" height="20" fill="white" transform="translate(0.0800781 0.432129)"/>
</clipPath>
</defs>
</svg>
