<svg width="21" height="21" viewBox="0 0 21 21" fill="none" xmlns="http://www.w3.org/2000/svg">
<g clip-path="url(#clip0_2160_35004)">
<path d="M15.6113 12.2658L17.4451 10.4325M17.4451 10.4325L19.278 8.59912M17.4451 10.4325L15.6113 8.59912M17.4451 10.4325L19.278 12.2658" stroke="#DFFF5D" stroke-width="1.5" stroke-linecap="round" stroke-linejoin="round"/>
<path d="M1.37207 12.1345V8.72979C1.37207 7.71723 2.19288 6.89642 3.20541 6.89642H5.86375C6.04313 6.89642 6.21857 6.84378 6.36833 6.74504L11.8675 3.11921C12.477 2.71736 13.2888 3.15448 13.2888 3.8845V16.9798C13.2888 17.7097 12.477 18.1469 11.8675 17.745L6.36833 14.1193C6.21857 14.0205 6.04313 13.9678 5.86375 13.9678H3.20541C2.19288 13.9678 1.37207 13.147 1.37207 12.1345Z" stroke="#DFFF5D" stroke-width="1.5"/>
</g>
<defs>
<clipPath id="clip0_2160_35004">
<rect width="20" height="20" fill="white" transform="translate(0.0800781 0.432129)"/>
</clipPath>
</defs>
</svg>
