<svg width="240" height="272" viewBox="0 0 240 272" fill="none" xmlns="http://www.w3.org/2000/svg"><path opacity="0.1" d="M192 -112.484C192 -105.862 197.368 -100.495 203.989 -100.495H219.637C230.883 -100.495 240 -109.611 240 -120.858V-150.833C240 -158.784 233.549 -165.229 225.598 -165.229C217.653 -165.229 211.207 -171.67 211.207 -179.615C211.207 -187.559 204.766 -194 196.822 -194H43.1872C35.2423 -194 28.8017 -187.559 28.8017 -179.615C28.8017 -171.67 22.3535 -165.229 14.4086 -165.229C6.45521 -165.229 0 -158.782 0 -150.828V-96.8878C0 -85.6415 9.11688 -76.5246 20.3631 -76.5246H60.015C66.6366 -76.5246 72.0044 -71.1568 72.0044 -64.5353C72.0044 -57.9138 77.3722 -52.546 83.9937 -52.546H147.641C158.887 -52.546 168.004 -43.4291 168.004 -32.1829V-12.9756C168.004 -1.72931 158.887 7.38757 147.641 7.38757H123.579C114.974 7.38757 107.998 0.41156 107.998 -8.19377C107.998 -16.7991 101.022 -23.7751 92.4165 -23.7751H59.9893C53.3678 -23.7751 48 -29.1429 48 -35.7644C48 -42.3859 42.6322 -47.7538 36.0107 -47.7538H20.3631C9.11688 -47.7538 0 -38.6369 0 -27.3906V2.57988C0 10.5333 6.54501 16.9808 14.4984 16.9808C22.3448 16.9808 28.8017 23.3415 28.8017 31.1879C28.8017 39.0343 22.3448 45.3951 14.4984 45.3951C6.54501 45.3951 0 51.8426 0 59.7959V113.736C0 124.983 9.11688 134.1 20.3631 134.1H60.015C66.6366 134.1 72.0044 139.467 72.0044 146.089C72.0044 152.71 77.3722 158.078 83.9937 158.078H147.641C158.887 158.078 168.004 167.195 168.004 178.441V197.649C168.004 208.895 158.887 218.012 147.641 218.012H123.579C114.974 218.012 107.998 211.036 107.998 202.43C107.998 193.825 101.022 186.849 92.4165 186.849H59.9893C53.3678 186.849 48 181.481 48 174.86C48 168.238 42.6322 162.87 36.0107 162.87H20.3631C9.11688 162.87 0 171.987 0 183.234V213.204C0 221.157 6.54501 227.605 14.4984 227.605C22.3448 227.605 28.8017 233.966 28.8017 241.812C28.8017 249.658 22.3448 256.019 14.4984 256.019C6.54501 256.019 0 262.467 0 270.42V324.369C0 335.615 9.11688 344.732 20.3631 344.732H60.0194C66.6385 344.732 72.0044 350.098 72.0044 356.717C72.0044 363.336 77.3702 368.702 83.9893 368.702H147.641C158.887 368.702 168.004 377.819 168.004 389.065V408.281C168.004 419.528 158.887 428.645 147.641 428.645H123.584C114.976 428.645 107.998 421.667 107.998 413.059C107.998 404.451 101.02 397.473 92.4121 397.473H59.9893C53.3678 397.473 48 392.105 48 385.484C48 378.862 42.6322 373.495 36.0107 373.495H20.3631C9.11688 373.495 0 382.611 0 393.858V423.828C0 431.782 6.4552 438.229 14.4086 438.229C22.3535 438.229 28.8017 444.67 28.8017 452.615C28.8017 460.559 35.2423 467 43.1872 467H196.822C204.766 467 211.207 460.559 211.207 452.615C211.207 444.67 217.653 438.229 225.598 438.229C233.549 438.229 240 431.784 240 423.833V369.888C240 358.642 230.883 349.525 219.637 349.525H179.994C173.372 349.525 168.004 344.157 168.004 337.535C168.004 330.914 162.637 325.546 156.015 325.546H92.3675C81.1212 325.546 72.0044 316.429 72.0044 305.183V285.976C72.0044 274.729 81.1212 265.612 92.3675 265.612H116.417C125.024 265.612 132.002 272.59 132.002 281.198C132.002 289.806 138.98 296.784 147.588 296.784H180.015C186.634 296.784 192 302.15 192 308.769C192 315.388 197.366 320.754 203.985 320.754H219.637C230.883 320.754 240 311.637 240 300.391V270.416C240 262.465 233.459 256.019 225.508 256.019C217.662 256.019 211.207 249.658 211.207 241.812C211.207 233.966 217.662 227.605 225.508 227.605C233.459 227.605 240 221.159 240 213.208V159.264C240 148.017 230.883 138.9 219.637 138.9H179.994C173.372 138.9 168.004 133.533 168.004 126.911C168.004 120.29 162.637 114.922 156.015 114.922H92.3675C81.1212 114.922 72.0044 105.805 72.0044 94.5587V75.3514C72.0044 64.1051 81.1212 54.9883 92.3675 54.9883H116.421C125.026 54.9883 132.002 61.9643 132.002 70.5696C132.002 79.1749 138.978 86.1509 147.584 86.1509H180.011C186.632 86.1509 192 91.5187 192 98.1403C192 104.762 197.368 110.13 203.989 110.13H219.637C230.883 110.13 240 101.013 240 89.7664V59.7916C240 51.8406 233.459 45.3951 225.508 45.3951C217.662 45.3951 211.207 39.0343 211.207 31.1879C211.207 23.3415 217.662 16.9808 225.508 16.9808C233.459 16.9808 240 10.5352 240 2.58426V-51.3693C240 -62.6155 230.883 -71.7324 219.637 -71.7324H179.989C173.37 -71.7324 168.004 -77.0983 168.004 -83.7174C168.004 -90.3365 162.639 -95.7023 156.019 -95.7023H92.3675C81.1212 -95.7023 72.0044 -104.819 72.0044 -116.065V-135.281C72.0044 -146.528 81.1212 -155.645 92.3675 -155.645H116.416C125.024 -155.645 132.002 -148.667 132.002 -140.059C132.002 -131.451 138.98 -124.473 147.588 -124.473H180.011C186.632 -124.473 192 -119.105 192 -112.484Z" fill="black"></path></svg>