<svg width="20" height="20" viewBox="0 0 20 20" fill="none" xmlns="http://www.w3.org/2000/svg">
<path d="M16.75 16.7497H10.75M2.875 17.1247L7.03695 15.524C7.30316 15.4216 7.43626 15.3704 7.56079 15.3036C7.6714 15.2442 7.77685 15.1757 7.87603 15.0987C7.98769 15.012 8.08853 14.9112 8.29021 14.7095L16.75 6.24974C17.5784 5.42131 17.5784 4.07817 16.75 3.24974C15.9216 2.42131 14.5784 2.42131 13.75 3.24974L5.29021 11.7095C5.08853 11.9112 4.98769 12.012 4.90104 12.1237C4.82408 12.2229 4.75555 12.3283 4.69618 12.439C4.62933 12.5635 4.57814 12.6966 4.47575 12.9628L2.875 17.1247ZM2.875 17.1247L4.41859 13.1115C4.52905 12.8243 4.58428 12.6807 4.67901 12.6149C4.76179 12.5574 4.86423 12.5357 4.96322 12.5546C5.0765 12.5762 5.18529 12.685 5.40286 12.9026L7.09718 14.5969C7.31475 14.8145 7.42354 14.9233 7.44517 15.0365C7.46408 15.1355 7.44234 15.238 7.38486 15.3208C7.31908 15.4155 7.17549 15.4707 6.8883 15.5812L2.875 17.1247Z" stroke="#C1C1C1" stroke-width="1.5" stroke-linecap="round" stroke-linejoin="round"/>
</svg>
