<svg width="22" height="22" viewBox="0 0 22 22" fill="none" xmlns="http://www.w3.org/2000/svg">
<path d="M12.8066 17.9359V12.8609C12.8066 12.571 13.0417 12.3359 13.3316 12.3359H18.4066C18.6966 12.3359 18.9316 12.571 18.9316 12.8609V17.9359C18.9316 18.2259 18.6966 18.4609 18.4066 18.4609H13.3316C13.0417 18.4609 12.8066 18.2259 12.8066 17.9359Z" stroke="#C1C1C1" stroke-width="1.5"/>
<path d="M3.18164 17.9359V12.8609C3.18164 12.571 3.41669 12.3359 3.70664 12.3359H8.78164C9.07159 12.3359 9.30664 12.571 9.30664 12.8609V17.9359C9.30664 18.2259 9.07159 18.4609 8.78164 18.4609H3.70664C3.41669 18.4609 3.18164 18.2259 3.18164 17.9359Z" stroke="#C1C1C1" stroke-width="1.5"/>
<path d="M12.8066 8.31094V3.23594C12.8066 2.94599 13.0417 2.71094 13.3316 2.71094H18.4066C18.6966 2.71094 18.9316 2.94599 18.9316 3.23594V8.31094C18.9316 8.60089 18.6966 8.83594 18.4066 8.83594H13.3316C13.0417 8.83594 12.8066 8.60089 12.8066 8.31094Z" stroke="#C1C1C1" stroke-width="1.5"/>
<path d="M3.18164 8.31094V3.23594C3.18164 2.94599 3.41669 2.71094 3.70664 2.71094H8.78164C9.07159 2.71094 9.30664 2.94599 9.30664 3.23594V8.31094C9.30664 8.60089 9.07159 8.83594 8.78164 8.83594H3.70664C3.41669 8.83594 3.18164 8.60089 3.18164 8.31094Z" stroke="#C1C1C1" stroke-width="1.5"/>
</svg>
