<svg width="22" height="22" viewBox="0 0 22 22" fill="none" xmlns="http://www.w3.org/2000/svg">
<path d="M12.9277 18.35V13.275C12.9277 12.985 13.1628 12.75 13.4527 12.75H18.5277C18.8177 12.75 19.0527 12.985 19.0527 13.275V18.35C19.0527 18.64 18.8177 18.875 18.5277 18.875H13.4527C13.1628 18.875 12.9277 18.64 12.9277 18.35Z" stroke="#1F1F1F" stroke-width="1.5"/>
<path d="M3.30273 18.35V13.275C3.30273 12.985 3.53779 12.75 3.82773 12.75H8.90273C9.19268 12.75 9.42773 12.985 9.42773 13.275V18.35C9.42773 18.64 9.19268 18.875 8.90273 18.875H3.82773C3.53779 18.875 3.30273 18.64 3.30273 18.35Z" stroke="#1F1F1F" stroke-width="1.5"/>
<path d="M12.9277 8.725V3.65C12.9277 3.36005 13.1628 3.125 13.4527 3.125H18.5277C18.8177 3.125 19.0527 3.36005 19.0527 3.65V8.725C19.0527 9.01495 18.8177 9.25 18.5277 9.25H13.4527C13.1628 9.25 12.9277 9.01495 12.9277 8.725Z" stroke="#1F1F1F" stroke-width="1.5"/>
<path d="M3.30273 8.725V3.65C3.30273 3.36005 3.53779 3.125 3.82773 3.125H8.90273C9.19268 3.125 9.42773 3.36005 9.42773 3.65V8.725C9.42773 9.01495 9.19268 9.25 8.90273 9.25H3.82773C3.53779 9.25 3.30273 9.01495 3.30273 8.725Z" stroke="#1F1F1F" stroke-width="1.5"/>
</svg>
