<svg width="19" height="20" viewBox="0 0 19 20" fill="none" xmlns="http://www.w3.org/2000/svg">
<g clip-path="url(#clip0_2785_327031)">
<path d="M4.3 6.92185H6.45349C6.73427 6.92185 7.01333 6.95526 7.28552 7.02208L9.56094 7.57503C10.0547 7.6953 10.569 7.707 11.0679 7.61011L13.5837 7.12064C14.2483 6.99118 14.8597 6.67294 15.3388 6.20687L17.1188 4.47536C17.6271 3.98172 17.6271 3.18071 17.1188 2.68623C16.6611 2.24103 15.9364 2.19092 15.4186 2.56846L13.3441 4.08196C13.0471 4.29912 12.6856 4.41606 12.3138 4.41606H10.3105L11.5856 4.41601C12.3043 4.41601 12.8865 3.8497 12.8865 3.15058V2.8975C12.8865 2.31699 12.4803 1.81082 11.9016 1.67049L9.93359 1.19189C9.61332 1.11421 9.28531 1.07495 8.95559 1.07495C8.15962 1.07495 6.71881 1.73397 6.71881 1.73397L4.3 2.74548M1 2.39495L1 7.17995C1 7.64199 1 7.87301 1.08992 8.04949C1.16902 8.20473 1.29522 8.33093 1.45046 8.41003C1.62693 8.49995 1.85796 8.49995 2.32 8.49995H2.98C3.44204 8.49995 3.67307 8.49995 3.84954 8.41003C4.00478 8.33094 4.13099 8.20473 4.21008 8.04949C4.3 7.87301 4.3 7.64199 4.3 7.17995V2.39495C4.3 1.93291 4.3 1.70189 4.21008 1.52541C4.13099 1.37017 4.00478 1.24397 3.84954 1.16487C3.67307 1.07495 3.44204 1.07495 2.98 1.07495H2.32C1.85796 1.07495 1.62694 1.07495 1.45046 1.16487C1.29522 1.24397 1.16902 1.37017 1.08992 1.52541C1 1.70189 1 1.93291 1 2.39495Z" stroke="#C1C1C1" stroke-width="1.5" stroke-linecap="round" stroke-linejoin="round"/>
<path d="M14.2 13.0781H12.0465C11.7657 13.0781 11.4867 13.0447 11.2145 12.9779L8.93906 12.425C8.44534 12.3047 7.93101 12.293 7.43213 12.3899L4.91629 12.8794C4.2517 13.0088 3.64034 13.3271 3.16122 13.7931L1.38124 15.5246C0.872919 16.0183 0.872919 16.8193 1.38124 17.3138C1.8389 17.759 2.5636 17.8091 3.08136 17.4315L5.15586 15.918C5.45295 15.7009 5.81444 15.5839 6.18624 15.5839H8.18946L6.91437 15.584C6.19568 15.584 5.61352 16.1503 5.61352 16.8494V17.1025C5.61352 17.683 6.01966 18.1892 6.59839 18.3295L8.56641 18.8081C8.88668 18.8858 9.21469 18.925 9.54441 18.925C10.3404 18.925 11.7812 18.266 11.7812 18.266L14.2 17.2545M17.5 17.605L17.5 12.82C17.5 12.358 17.5 12.127 17.4101 11.9505C17.331 11.7953 17.2048 11.6691 17.0495 11.59C16.8731 11.5001 16.642 11.5001 16.18 11.5001H15.52C15.058 11.5001 14.8269 11.5 14.6505 11.59C14.4952 11.6691 14.369 11.7953 14.2899 11.9505C14.2 12.127 14.2 12.358 14.2 12.82V17.605C14.2 18.0671 14.2 18.2981 14.2899 18.4746C14.369 18.6298 14.4952 18.756 14.6505 18.8351C14.8269 18.925 15.058 18.925 15.52 18.925H16.18C16.642 18.925 16.8731 18.925 17.0495 18.8351C17.2048 18.756 17.331 18.6298 17.4101 18.4746C17.5 18.2981 17.5 18.0671 17.5 17.605Z" stroke="#C1C1C1" stroke-width="1.5" stroke-linecap="round" stroke-linejoin="round"/>
</g>
<defs>
<clipPath id="clip0_2785_327031">
<rect width="18.5" height="19.85" fill="white" transform="translate(0 0.0749512)"/>
</clipPath>
</defs>
</svg>
