<svg width="18" height="10" viewBox="0 0 18 10" fill="none" xmlns="http://www.w3.org/2000/svg">
<path d="M4.05 7.4719H6.20349C6.48427 7.4719 6.76333 7.50531 7.03552 7.57213L9.31094 8.12508C9.80466 8.24535 10.319 8.25705 10.8179 8.16016L13.3337 7.67069C13.9983 7.54123 14.6097 7.22299 15.0888 6.75691L16.8688 5.02541C17.3771 4.53177 17.3771 3.73075 16.8688 3.23628C16.4111 2.79108 15.6864 2.74097 15.1686 3.11851L13.0941 4.632C12.7971 4.84917 12.4356 4.96611 12.0638 4.96611H10.0605L11.3356 4.96605C12.0543 4.96605 12.6365 4.39974 12.6365 3.70063V3.44754C12.6365 2.86704 12.2303 2.36087 11.6516 2.22054L9.68359 1.74194C9.36332 1.66426 9.03531 1.625 8.70559 1.625C7.90962 1.625 6.46881 2.28402 6.46881 2.28402L4.05 3.29553M0.75 2.945L0.75 7.73C0.75 8.19204 0.75 8.42306 0.83992 8.59954C0.919015 8.75477 1.04522 8.88098 1.20046 8.96008C1.37693 9.05 1.60796 9.05 2.07 9.05H2.73C3.19204 9.05 3.42307 9.05 3.59954 8.96008C3.75478 8.88098 3.88099 8.75477 3.96008 8.59954C4.05 8.42306 4.05 8.19204 4.05 7.73V2.945C4.05 2.48296 4.05 2.25193 3.96008 2.07546C3.88099 1.92022 3.75478 1.79402 3.59954 1.71492C3.42307 1.625 3.19204 1.625 2.73 1.625H2.07C1.60796 1.625 1.37694 1.625 1.20046 1.71492C1.04522 1.79402 0.919015 1.92022 0.83992 2.07546C0.75 2.25193 0.75 2.48296 0.75 2.945Z" stroke="#C1C1C1" stroke-width="1.5" stroke-linecap="round" stroke-linejoin="round"/>
</svg>
