<svg width="19" height="19" viewBox="0 0 19 19" fill="none" xmlns="http://www.w3.org/2000/svg">
<path d="M9.28909 0.09375C6.84482 0.09375 6.53832 0.104119 5.57836 0.147901C4.62042 0.191602 3.96619 0.343766 3.3937 0.566211C2.80187 0.796213 2.29996 1.10397 1.79964 1.6043C1.29928 2.10463 0.991525 2.60659 0.761551 3.19842C0.539052 3.77087 0.386942 4.42511 0.343187 5.38305C0.299405 6.34301 0.289062 6.6495 0.289062 9.09378C0.289062 11.538 0.299405 11.8445 0.343187 12.8044C0.386942 13.7624 0.539052 14.4166 0.761551 14.9891C0.991552 15.5809 1.29931 16.0828 1.79964 16.5832C2.29999 17.0835 2.80187 17.3913 3.3937 17.6213C3.96619 17.8437 4.62042 17.9959 5.57836 18.0396C6.53832 18.0834 6.84482 18.0938 9.28909 18.0938C11.7333 18.0938 12.0398 18.0834 12.9998 18.0396C13.9577 17.9959 14.6119 17.8437 15.1844 17.6213C15.7762 17.3913 16.2781 17.0835 16.7785 16.5832C17.2788 16.0828 17.5866 15.5809 17.8166 14.9891C18.039 14.4166 18.1912 13.7624 18.2349 12.8044C18.2787 11.8445 18.2891 11.538 18.2891 9.09378C18.2891 6.6495 18.2787 6.34301 18.2349 5.38305C18.1912 4.42511 18.039 3.77087 17.8166 3.19842C17.5866 2.60659 17.2788 2.10463 16.7785 1.6043C16.2781 1.10397 15.7762 0.796213 15.1844 0.566211C14.6119 0.343766 13.9577 0.191602 12.9998 0.147901C12.0398 0.104119 11.7333 0.09375 9.28909 0.09375ZM9.28909 1.71536C11.6922 1.71536 11.9768 1.72455 12.9258 1.76785C13.8033 1.80785 14.2799 1.95447 14.597 2.07772C15.0171 2.24101 15.3169 2.43602 15.6318 2.75095C15.9468 3.06589 16.1418 3.36572 16.3051 3.7858C16.4283 4.10293 16.575 4.5795 16.615 5.45698C16.6583 6.406 16.6675 6.69066 16.6675 9.09375C16.6675 11.4968 16.6583 11.7815 16.615 12.7305C16.575 13.608 16.4283 14.0846 16.3051 14.4017C16.1418 14.8218 15.9468 15.1216 15.6318 15.4365C15.3169 15.7515 15.0171 15.9465 14.597 16.1098C14.2799 16.233 13.8033 16.3796 12.9258 16.4196C11.977 16.4629 11.6923 16.4721 9.28906 16.4721C6.88579 16.4721 6.60121 16.4629 5.65229 16.4196C4.77478 16.3796 4.29825 16.233 3.98114 16.1098C3.56101 15.9465 3.26121 15.7515 2.94629 15.4365C2.63135 15.1216 2.43632 14.8218 2.27304 14.4017C2.14978 14.0846 2.00319 13.608 1.96316 12.7305C1.91986 11.7815 1.91067 11.4968 1.91067 9.09375C1.91067 6.69066 1.91986 6.406 1.96316 5.45698C2.00319 4.57947 2.14978 4.10293 2.27304 3.78583C2.43632 3.36569 2.63135 3.06589 2.94627 2.75098C3.26121 2.43602 3.56103 2.24101 3.98111 2.07772C4.29825 1.95447 4.77481 1.80785 5.65229 1.76785C6.60131 1.72455 6.88597 1.71536 9.28906 1.71536" fill="white"/>
<path d="M9.28912 12.0932C7.63223 12.0932 6.28909 10.7501 6.28909 9.09325C6.28909 7.43635 7.63223 6.09321 9.28912 6.09321C10.946 6.09321 12.2891 7.43635 12.2891 9.09325C12.2891 10.7501 10.946 12.0932 9.28912 12.0932ZM9.28912 4.47161C6.73663 4.47161 4.66748 6.54076 4.66748 9.09325C4.66748 11.6457 6.73663 13.7148 9.28912 13.7148C11.8416 13.7148 13.9107 11.6457 13.9107 9.09325C13.9107 6.54076 11.8416 4.47161 9.28912 4.47161ZM15.1733 4.289C15.1733 4.8855 14.6898 5.369 14.0933 5.369C13.4969 5.369 13.0133 4.8855 13.0133 4.289C13.0133 3.69254 13.4969 3.20898 14.0933 3.20898C14.6898 3.20898 15.1733 3.69254 15.1733 4.289Z" fill="white"/>
</svg>
