<svg width="22" height="22" viewBox="0 0 22 22" fill="none" xmlns="http://www.w3.org/2000/svg">
<path d="M2.30664 9.71094H14.5566" stroke="#C1C1C1" stroke-width="1.5" stroke-linecap="round" stroke-linejoin="round"/>
<path d="M2.30664 14.9609H11.9316" stroke="#C1C1C1" stroke-width="1.5" stroke-linecap="round" stroke-linejoin="round"/>
<path d="M2.30664 4.46094H18.0566" stroke="#C1C1C1" stroke-width="1.5" stroke-linecap="round" stroke-linejoin="round"/>
<path d="M18.0566 16.2734C18.0566 16.9983 17.469 17.5859 16.7441 17.5859C16.0193 17.5859 15.4316 16.9983 15.4316 16.2734C15.4316 15.5486 16.0193 14.9609 16.7441 14.9609C17.469 14.9609 18.0566 15.5486 18.0566 16.2734Z" fill="#C1C1C1"/>
<path d="M18.0566 16.2734C18.0566 16.9983 17.469 17.5859 16.7441 17.5859C16.0193 17.5859 15.4316 16.9983 15.4316 16.2734C15.4316 15.5486 16.0193 14.9609 16.7441 14.9609C17.469 14.9609 18.0566 15.5486 18.0566 16.2734ZM18.0566 16.2734V9.36094C18.0566 9.07096 18.2917 8.83594 18.5816 8.83594H19.8066" stroke="#C1C1C1" stroke-width="1.5" stroke-linecap="round"/>
</svg>
