<svg width="19" height="19" viewBox="0 0 19 19" fill="none" xmlns="http://www.w3.org/2000/svg">
<g clip-path="url(#clip0_2326_41225)">
<path d="M13.3506 3.513V6.97135L17.0814 5.16684C17.1826 5.09938 17.1801 4.94985 17.0767 4.88584L13.6055 3.37098C13.4943 3.30209 13.3506 3.38213 13.3506 3.513Z" fill="#FFA5A5"/>
<path d="M13.3506 8.36328V6.97135M13.3506 6.97135V3.513C13.3506 3.38213 13.4943 3.30209 13.6055 3.37098L17.0767 4.88584C17.1801 4.94985 17.1826 5.09938 17.0814 5.16684L13.3506 6.97135Z" stroke="#FFA5A5" stroke-width="1.35" stroke-linecap="round" stroke-linejoin="round"/>
<path d="M1.16406 15.3457V14.5957C1.16406 11.6962 3.51457 9.3457 6.41406 9.3457C9.31356 9.3457 11.6641 11.6962 11.6641 14.5957V15.3457" stroke="#FFA5A5" stroke-width="1.5" stroke-linecap="round" stroke-linejoin="round"/>
<path d="M6.41406 9.3457C8.07089 9.3457 9.41406 8.00253 9.41406 6.3457C9.41406 4.68885 8.07089 3.3457 6.41406 3.3457C4.75721 3.3457 3.41406 4.68885 3.41406 6.3457C3.41406 8.00253 4.75721 9.3457 6.41406 9.3457Z" stroke="#FFA5A5" stroke-width="1.5" stroke-linecap="round" stroke-linejoin="round"/>
</g>
<defs>
<clipPath id="clip0_2326_41225">
<rect width="18" height="18" fill="white" transform="translate(0.414062 0.345703)"/>
</clipPath>
</defs>
</svg>
