<svg width="24" height="18" viewBox="0 0 24 18" fill="none" xmlns="http://www.w3.org/2000/svg">
<path d="M0.209577 3.80583C0.319746 2.10973 1.68338 0.780505 3.38097 0.696402C5.83919 0.574616 9.35269 0.427734 12 0.427734C14.6473 0.427734 18.1608 0.574616 20.619 0.696402C22.3166 0.780505 23.6803 2.10973 23.7904 3.80583C23.896 5.43081 24 7.4303 24 8.99916C24 10.568 23.896 12.5675 23.7904 14.1925C23.6803 15.8886 22.3166 17.2178 20.619 17.3019C18.1608 17.4237 14.6473 17.5706 12 17.5706C9.35269 17.5706 5.83919 17.4237 3.38097 17.3019C1.68338 17.2178 0.319746 15.8886 0.209577 14.1925C0.104026 12.5675 0 10.568 0 8.99916C0 7.4303 0.104026 5.43081 0.209577 3.80583Z" fill="#FC0D1B"/>
<path d="M8.57129 5.57031V12.4275L15.4284 8.99888L8.57129 5.57031Z" fill="white"/>
</svg>
