<svg width="25" height="25" viewBox="0 0 25 25" fill="none" xmlns="http://www.w3.org/2000/svg">
<path d="M12.9082 22.2883C18.4311 22.2883 22.9082 17.8112 22.9082 12.2883C22.9082 6.76548 18.4311 2.28833 12.9082 2.28833C7.38536 2.28833 2.9082 6.76548 2.9082 12.2883C2.9082 17.8112 7.38536 22.2883 12.9082 22.2883Z" stroke="#FAFAFA" stroke-width="1.5" stroke-linecap="round" stroke-linejoin="round"/>
<path d="M15.6303 8.5543C16.1189 8.39145 16.3631 8.31002 16.5256 8.36795C16.6669 8.41836 16.7782 8.5296 16.8286 8.67096C16.8865 8.8334 16.8051 9.07768 16.6422 9.56622L15.1547 14.0289C15.1083 14.168 15.0851 14.2376 15.0456 14.2953C15.0106 14.3465 14.9664 14.3907 14.9152 14.4257C14.8574 14.4653 14.7879 14.4884 14.6487 14.5348L10.1861 16.0224C9.69755 16.1852 9.45328 16.2666 9.29083 16.2087C9.14947 16.1583 9.03823 16.0471 8.98782 15.9057C8.92989 15.7433 9.01132 15.499 9.17417 15.0104L10.6617 10.5478C10.7081 10.4087 10.7313 10.3391 10.7708 10.2813C10.8058 10.2301 10.85 10.1859 10.9012 10.1509C10.959 10.1114 11.0285 10.0882 11.1677 10.0418L15.6303 8.5543Z" stroke="#FAFAFA" stroke-width="1.5" stroke-linecap="round" stroke-linejoin="round"/>
</svg>
