<svg width="25" height="25" viewBox="0 0 25 25" fill="none" xmlns="http://www.w3.org/2000/svg">
<path fill-rule="evenodd" clip-rule="evenodd" d="M2.1582 12.2883C2.1582 6.35127 6.97114 1.53833 12.9082 1.53833C18.8453 1.53833 23.6582 6.35127 23.6582 12.2883C23.6582 18.2254 18.8453 23.0383 12.9082 23.0383C6.97114 23.0383 2.1582 18.2254 2.1582 12.2883ZM16.0287 7.64822C16.2012 7.60766 16.4829 7.55647 16.7775 7.66152C17.1309 7.78754 17.409 8.06565 17.535 8.41905C17.6401 8.71362 17.5889 8.99529 17.5483 9.16787C17.5069 9.34417 17.4364 9.5555 17.363 9.77563L15.8662 14.266L15.8566 14.2953C15.8227 14.3987 15.767 14.5692 15.6646 14.7188C15.5771 14.8467 15.4666 14.9572 15.3387 15.0448C15.189 15.1471 15.0186 15.2029 14.9152 15.2367L14.8859 15.2463L10.3955 16.7431C10.1754 16.8165 9.96404 16.887 9.78774 16.9284C9.61516 16.969 9.3335 17.0202 9.03892 16.9151C8.68552 16.7891 8.40741 16.511 8.28139 16.1576C8.17635 15.863 8.22754 15.5814 8.26809 15.4088C8.30952 15.2325 8.37999 15.0212 8.45339 14.801L9.9502 10.3106L9.95984 10.2813C9.99367 10.1779 10.0494 10.0075 10.1518 9.85787C10.2393 9.72995 10.3498 9.61941 10.4777 9.5319C10.6274 9.42955 10.7978 9.37379 10.9012 9.33997L10.9305 9.33033L15.4209 7.83352C15.641 7.76012 15.8524 7.68965 16.0287 7.64822Z" fill="#FAFAFA"/>
</svg>
