<svg width="28" height="30" viewBox="0 0 28 30" fill="none" xmlns="http://www.w3.org/2000/svg">
<g filter="url(#filter0_d_210_15461)">
<path d="M14.8905 3.05233C14.5392 2.77908 14.3635 2.64245 14.1695 2.58993C13.9984 2.54359 13.818 2.54359 13.6469 2.58993C13.4529 2.64245 13.2772 2.77908 12.9259 3.05233L6.14359 8.32746C5.69022 8.68008 5.46354 8.85639 5.30023 9.07719C5.15557 9.27277 5.0478 9.49311 4.98223 9.72738C4.9082 9.99185 4.9082 10.279 4.9082 10.8534V18.0883C4.9082 19.2084 4.9082 19.7685 5.12619 20.1963C5.31794 20.5726 5.6239 20.8786 6.00022 21.0703C6.42805 21.2883 6.9881 21.2883 8.1082 21.2883H10.1082C10.3882 21.2883 10.5282 21.2883 10.6352 21.2338C10.7293 21.1859 10.8058 21.1094 10.8537 21.0153C10.9082 20.9084 10.9082 20.7683 10.9082 20.4883V13.8883C10.9082 13.3283 10.9082 13.0482 11.0172 12.8343C11.1131 12.6462 11.2661 12.4932 11.4542 12.3973C11.6681 12.2883 11.9482 12.2883 12.5082 12.2883H15.3082C15.8683 12.2883 16.1483 12.2883 16.3622 12.3973C16.5504 12.4932 16.7033 12.6462 16.7992 12.8343C16.9082 13.0482 16.9082 13.3283 16.9082 13.8883V20.4883C16.9082 20.7683 16.9082 20.9084 16.9627 21.0153C17.0106 21.1094 17.0871 21.1859 17.1812 21.2338C17.2882 21.2883 17.4282 21.2883 17.7082 21.2883H19.7082C20.8283 21.2883 21.3884 21.2883 21.8162 21.0703C22.1925 20.8786 22.4985 20.5726 22.6902 20.1963C22.9082 19.7685 22.9082 19.2084 22.9082 18.0883V10.8534C22.9082 10.279 22.9082 9.99185 22.8342 9.72738C22.7686 9.49311 22.6608 9.27277 22.5162 9.07719C22.3529 8.85639 22.1262 8.68008 21.6728 8.32746L14.8905 3.05233Z" fill="#FAFAFA" stroke="#FAFAFA" stroke-linecap="round" stroke-linejoin="round"/>
</g>
<defs>
<filter id="filter0_d_210_15461" x="-2.0918" y="0.28833" width="32" height="32" filterUnits="userSpaceOnUse" color-interpolation-filters="sRGB">
<feFlood flood-opacity="0" result="BackgroundImageFix"/>
<feColorMatrix in="SourceAlpha" type="matrix" values="0 0 0 0 0 0 0 0 0 0 0 0 0 0 0 0 0 0 127 0" result="hardAlpha"/>
<feOffset dy="4"/>
<feGaussianBlur stdDeviation="2"/>
<feComposite in2="hardAlpha" operator="out"/>
<feColorMatrix type="matrix" values="0 0 0 0 0 0 0 0 0 0 0 0 0 0 0 0 0 0 0.25 0"/>
<feBlend mode="normal" in2="BackgroundImageFix" result="effect1_dropShadow_210_15461"/>
<feBlend mode="normal" in="SourceGraphic" in2="effect1_dropShadow_210_15461" result="shape"/>
</filter>
</defs>
</svg>
