<svg width="25" height="25" viewBox="0 0 25 25" fill="none" xmlns="http://www.w3.org/2000/svg">
<path d="M13.8905 3.05233C13.5392 2.77908 13.3635 2.64245 13.1695 2.58993C12.9984 2.54359 12.818 2.54359 12.6469 2.58993C12.4529 2.64245 12.2772 2.77908 11.9259 3.05233L5.14359 8.32746C4.69022 8.68008 4.46354 8.85639 4.30023 9.07719C4.15557 9.27277 4.0478 9.49311 3.98223 9.72738C3.9082 9.99185 3.9082 10.279 3.9082 10.8534V18.0883C3.9082 19.2084 3.9082 19.7685 4.12619 20.1963C4.31794 20.5726 4.6239 20.8786 5.00022 21.0703C5.42805 21.2883 5.9881 21.2883 7.1082 21.2883H9.1082C9.38823 21.2883 9.52824 21.2883 9.6352 21.2338C9.72928 21.1859 9.80577 21.1094 9.85371 21.0153C9.9082 20.9084 9.9082 20.7683 9.9082 20.4883V13.8883C9.9082 13.3283 9.9082 13.0482 10.0172 12.8343C10.1131 12.6462 10.2661 12.4932 10.4542 12.3973C10.6681 12.2883 10.9482 12.2883 11.5082 12.2883H14.3082C14.8683 12.2883 15.1483 12.2883 15.3622 12.3973C15.5504 12.4932 15.7033 12.6462 15.7992 12.8343C15.9082 13.0482 15.9082 13.3283 15.9082 13.8883V20.4883C15.9082 20.7683 15.9082 20.9084 15.9627 21.0153C16.0106 21.1094 16.0871 21.1859 16.1812 21.2338C16.2882 21.2883 16.4282 21.2883 16.7082 21.2883H18.7082C19.8283 21.2883 20.3884 21.2883 20.8162 21.0703C21.1925 20.8786 21.4985 20.5726 21.6902 20.1963C21.9082 19.7685 21.9082 19.2084 21.9082 18.0883V10.8534C21.9082 10.279 21.9082 9.99185 21.8342 9.72738C21.7686 9.49311 21.6608 9.27277 21.5162 9.07719C21.3529 8.85639 21.1262 8.68008 20.6728 8.32746L13.8905 3.05233Z" stroke="#FAFAFA" stroke-width="1.5" stroke-linecap="round" stroke-linejoin="round"/>
</svg>
