<svg width="25" height="25" viewBox="0 0 25 25" fill="none" xmlns="http://www.w3.org/2000/svg">
<path d="M12.9082 15.2883C9.73813 15.2883 6.919 16.819 5.1242 19.1943C4.73791 19.7055 4.54477 19.9611 4.55108 20.3066C4.55597 20.5735 4.72357 20.9102 4.93357 21.075C5.20539 21.2883 5.58208 21.2883 6.33544 21.2883H19.481C20.2343 21.2883 20.611 21.2883 20.8828 21.075C21.0928 20.9102 21.2604 20.5735 21.2653 20.3066C21.2716 19.9611 21.0785 19.7055 20.6922 19.1943C18.8974 16.819 16.0783 15.2883 12.9082 15.2883Z" fill="#FAFAFA"/>
<path d="M12.9082 12.2883C15.3935 12.2883 17.4082 10.2736 17.4082 7.78833C17.4082 5.30305 15.3935 3.28833 12.9082 3.28833C10.4229 3.28833 8.40821 5.30305 8.40821 7.78833C8.40821 10.2736 10.4229 12.2883 12.9082 12.2883Z" fill="#FAFAFA"/>
<path d="M12.9082 15.2883C9.73813 15.2883 6.919 16.819 5.1242 19.1943C4.73791 19.7055 4.54477 19.9611 4.55108 20.3066C4.55597 20.5735 4.72357 20.9102 4.93357 21.075C5.20539 21.2883 5.58208 21.2883 6.33544 21.2883H19.481C20.2343 21.2883 20.611 21.2883 20.8828 21.075C21.0928 20.9102 21.2604 20.5735 21.2653 20.3066C21.2716 19.9611 21.0785 19.7055 20.6922 19.1943C18.8974 16.819 16.0783 15.2883 12.9082 15.2883Z" stroke="#FAFAFA" stroke-width="1.5" stroke-linecap="round" stroke-linejoin="round"/>
<path d="M12.9082 12.2883C15.3935 12.2883 17.4082 10.2736 17.4082 7.78833C17.4082 5.30305 15.3935 3.28833 12.9082 3.28833C10.4229 3.28833 8.40821 5.30305 8.40821 7.78833C8.40821 10.2736 10.4229 12.2883 12.9082 12.2883Z" stroke="#FAFAFA" stroke-width="1.5" stroke-linecap="round" stroke-linejoin="round"/>
</svg>
