<svg width="25" height="25" viewBox="0 0 25 25" fill="none" xmlns="http://www.w3.org/2000/svg">
<path d="M10.4082 22.2883H15.4082M15.9082 15.6147C18.2732 14.4912 19.9082 12.0807 19.9082 9.28833C19.9082 5.42234 16.7742 2.28833 12.9082 2.28833C9.04221 2.28833 5.9082 5.42234 5.9082 9.28833C5.9082 12.0807 7.54326 14.4912 9.9082 15.6147V16.2883C9.9082 17.2202 9.9082 17.6862 10.0604 18.0537C10.2634 18.5438 10.6528 18.9331 11.1428 19.1361C11.5104 19.2883 11.9763 19.2883 12.9082 19.2883C13.8401 19.2883 14.306 19.2883 14.6736 19.1361C15.1636 18.9331 15.553 18.5438 15.756 18.0537C15.9082 17.6862 15.9082 17.2202 15.9082 16.2883V15.6147Z" stroke="#FAFAFA" stroke-width="1.5" stroke-linecap="round" stroke-linejoin="round"/>
</svg>
