<svg width="25" height="25" viewBox="0 0 25 25" fill="none" xmlns="http://www.w3.org/2000/svg">
<path fill-rule="evenodd" clip-rule="evenodd" d="M18.3082 5.08833L20.1082 6.88833L18.7804 8.45865L19.7684 10.8442L21.9082 11.3883L21.9081 13.1678L19.7607 13.7265L18.7725 16.1128L20.1082 17.6883L18.3082 19.4883C18.3082 19.4883 17.1354 18.4365 16.7378 18.1523L14.3523 19.1402L13.8082 21.2883H12.0082L11.4655 19.1394L9.12025 18.1746L7.5082 19.4883L5.7082 17.6883L7.07238 16.1581L6.0692 13.7783L3.9082 13.1883V11.3883L6.04345 10.89L7.01624 8.49829L5.7082 6.88833L7.5082 5.08833L9.04217 6.45269L11.4224 5.44935L11.9911 3.28833H13.75L14.3102 5.4211L16.7464 6.42299L18.3082 5.08833ZM16.469 4.68699L17.3337 3.948C17.9289 3.43934 18.8152 3.47404 19.3689 4.02767L21.1689 5.82767C21.7204 6.37916 21.7572 7.26127 21.2536 7.85683L20.516 8.72919L20.8666 9.57572L22.2779 9.9346C22.9428 10.1037 23.4082 10.7023 23.4082 11.3884L23.4081 13.1679C23.4081 13.8508 22.9467 14.4475 22.2858 14.6195L20.8609 14.9902L20.5086 15.841L21.2524 16.7183C21.7572 17.3138 21.7209 18.197 21.1689 18.749L19.3689 20.549C18.8055 21.1124 17.8993 21.1365 17.3061 20.6045L17.2582 20.5617C17.2263 20.5332 17.1801 20.492 17.1233 20.4416C17.0095 20.3407 16.8541 20.2036 16.6873 20.0583C16.6177 19.9977 16.5491 19.9384 16.4828 19.8814L15.6216 20.2381L15.2623 21.6566C15.0937 22.3222 14.4948 22.7883 13.8082 22.7883H12.0082C11.3212 22.7883 10.7221 22.3217 10.5539 21.6556L10.1962 20.2392L9.37552 19.9016L8.4558 20.6511C7.85929 21.1372 6.99167 21.0931 6.44754 20.549L4.64754 18.749C4.08536 18.1868 4.05947 17.2836 4.58852 16.6902L5.32202 15.8674L4.97037 15.0332L3.51316 14.6354C2.86075 14.4573 2.4082 13.8646 2.4082 13.1883V11.3883C2.4082 10.6912 2.88844 10.086 3.56729 9.92758L4.94649 9.6057L5.29238 8.7553L4.54401 7.83419C4.05932 7.23762 4.10402 6.37119 4.64754 5.82767L6.44754 4.02767C7.00926 3.46595 7.91152 3.43957 8.50509 3.96752L9.33177 4.7028L10.1596 4.35383L10.5405 2.90658C10.7139 2.24761 11.3097 1.78833 11.9911 1.78833H13.75C14.4316 1.78833 15.0276 2.24795 15.2008 2.90723L15.5713 4.31782L16.469 4.68699Z" fill="#FAFAFA"/>
<path fill-rule="evenodd" clip-rule="evenodd" d="M18.3082 5.08833L20.1082 6.88833L18.7804 8.45865L19.7684 10.8442L21.9082 11.3883L21.9081 13.1678L19.7607 13.7265L18.7725 16.1128L20.1082 17.6883L18.3082 19.4883C18.3082 19.4883 17.1354 18.4365 16.7378 18.1523L14.3523 19.1402L13.8082 21.2883H12.0082L11.4655 19.1394L9.12025 18.1746L7.5082 19.4883L5.7082 17.6883L7.07238 16.1581L6.0692 13.7783L3.9082 13.1883V11.3883L6.04345 10.89L7.01624 8.49829L5.7082 6.88833L7.5082 5.08833L9.04217 6.45269L11.4224 5.44935L11.9911 3.28833H13.75L14.3102 5.4211L16.7464 6.42299L18.3082 5.08833ZM15.9082 12.2883C15.9082 13.9452 14.5651 15.2883 12.9082 15.2883C11.2513 15.2883 9.9082 13.9452 9.9082 12.2883C9.9082 10.6314 11.2513 9.28833 12.9082 9.28833C14.5651 9.28833 15.9082 10.6314 15.9082 12.2883Z" fill="#FAFAFA"/>
</svg>
