<svg width="25" height="25" viewBox="0 0 25 25" fill="none" xmlns="http://www.w3.org/2000/svg">
<path d="M12.9082 15.2883C14.5651 15.2883 15.9082 13.9452 15.9082 12.2883C15.9082 10.6314 14.5651 9.28833 12.9082 9.28833C11.2513 9.28833 9.9082 10.6314 9.9082 12.2883C9.9082 13.9452 11.2513 15.2883 12.9082 15.2883Z" stroke="#FAFAFA" stroke-width="1.5" stroke-linecap="round" stroke-linejoin="round"/>
<path d="M20.6809 7.37258C20.9327 7.0748 20.9143 6.63375 20.6385 6.358L18.8385 4.558C18.5617 4.28119 18.1186 4.26384 17.821 4.51817L16.6077 5.55499L14.9408 4.86946L14.4754 3.09778C14.3888 2.76814 14.0908 2.53833 13.75 2.53833H11.9911C11.6504 2.53833 11.3525 2.76797 11.2658 3.09745L10.791 4.90159L9.18697 5.57774L8.00665 4.52792C7.70986 4.26395 7.25873 4.27714 6.97787 4.558L5.17787 6.358C4.90611 6.62976 4.88376 7.06297 5.12611 7.36126L6.15431 8.6268L5.49497 10.2479L3.73775 10.658C3.39832 10.7372 3.1582 11.0398 3.1582 11.3883V13.1883C3.1582 13.5265 3.38448 13.8228 3.71068 13.9119L5.51979 14.4057L6.1972 16.0127L5.14836 17.1893C4.88384 17.486 4.89678 17.9376 5.17787 18.2187L6.97787 20.0187C7.24994 20.2907 7.68375 20.3128 7.982 20.0697L9.24788 19.0381L10.8308 19.6893L11.281 21.472C11.3651 21.805 11.6647 22.0383 12.0082 22.0383H13.8082C14.1515 22.0383 14.451 21.8053 14.5352 21.4725L14.9869 19.6892L16.6184 19.0135C16.7848 19.1515 16.984 19.3222 17.1797 19.4926C17.3489 19.6398 17.506 19.7786 17.621 19.8806C17.6785 19.9315 17.7253 19.9732 17.7576 20.0021L17.7948 20.0354L17.8044 20.0439L17.8067 20.046L17.8073 20.0465L17.8074 20.0467L17.8074 20.0467C18.104 20.3127 18.5568 20.3004 18.8385 20.0187L20.6385 18.2187C20.9145 17.9426 20.9327 17.5011 20.6803 17.2033L19.6406 15.9769L20.3108 14.3584L22.097 13.8936C22.4274 13.8077 22.6581 13.5093 22.6581 13.1678L22.6582 11.3884C22.6582 11.0453 22.4255 10.746 22.093 10.6615L20.3175 10.21L19.6482 8.59392L20.6809 7.37258Z" stroke="#FAFAFA" stroke-width="1.5" stroke-linecap="round" stroke-linejoin="round"/>
</svg>
