<svg width="173" height="36" viewBox="0 0 173 36" fill="none" xmlns="http://www.w3.org/2000/svg">
<path d="M172.029 15.1239C172.029 14.0193 171.134 13.1239 170.029 13.1239C168.925 13.1239 168.029 14.0193 168.029 15.1239V20.7384C168.029 21.843 168.925 22.7384 170.029 22.7384C171.134 22.7384 172.029 21.843 172.029 20.7384V15.1239Z" fill="url(#paint0_linear_211_17437)"/>
<path d="M164.029 12.0293C164.029 10.9247 163.134 10.0293 162.029 10.0293C160.925 10.0293 160.029 10.9247 160.029 12.0293V23.8329C160.029 24.9375 160.925 25.8329 162.029 25.8329C163.134 25.8329 164.029 24.9375 164.029 23.8329V12.0293Z" fill="url(#paint1_linear_211_17437)"/>
<path d="M156.029 11.0045C156.029 9.89991 155.134 9.00448 154.029 9.00448C152.925 9.00448 152.029 9.89991 152.029 11.0045V24.8577C152.029 25.9623 152.925 26.8577 154.029 26.8577C155.134 26.8577 156.029 25.9623 156.029 24.8577V11.0045Z" fill="url(#paint2_linear_211_17437)"/>
<path d="M148.029 8.35248C148.029 7.24791 147.134 6.35249 146.029 6.35249C144.925 6.35249 144.029 7.24792 144.029 8.35249V27.5097C144.029 28.6143 144.925 29.5097 146.029 29.5097C147.134 29.5097 148.029 28.6143 148.029 27.5097V8.35248Z" fill="url(#paint3_linear_211_17437)"/>
<path d="M140.029 4.31061C140.029 3.20604 139.134 2.31062 138.029 2.31062C136.925 2.31062 136.029 3.20605 136.029 4.31062V31.5516C136.029 32.6561 136.925 33.5516 138.029 33.5516C139.134 33.5516 140.029 32.6561 140.029 31.5516V4.31061Z" fill="url(#paint4_linear_211_17437)"/>
<path d="M132.029 8.15112C132.029 7.04655 131.134 6.15112 130.029 6.15112C128.925 6.15112 128.029 7.04655 128.029 8.15112V27.7111C128.029 28.8156 128.925 29.7111 130.029 29.7111C131.134 29.7111 132.029 28.8156 132.029 27.7111V8.15112Z" fill="url(#paint5_linear_211_17437)"/>
<path d="M124.029 13.792C124.029 12.6874 123.134 11.792 122.029 11.792C120.925 11.792 120.029 12.6874 120.029 13.792V22.0702C120.029 23.1748 120.925 24.0702 122.029 24.0702C123.134 24.0702 124.029 23.1748 124.029 22.0702V13.792Z" fill="url(#paint6_linear_211_17437)"/>
<path d="M116.029 16.0665C116.029 14.9619 115.134 14.0665 114.029 14.0665C112.925 14.0665 112.029 14.9619 112.029 16.0665V19.7957C112.029 20.9002 112.925 21.7957 114.029 21.7957C115.134 21.7957 116.029 20.9002 116.029 19.7957V16.0665Z" fill="url(#paint7_linear_211_17437)"/>
<path d="M108.029 17.8714C108.029 16.7668 107.134 15.8714 106.029 15.8714C104.925 15.8714 104.029 16.7668 104.029 17.8714V17.9908C104.029 19.0954 104.925 19.9908 106.029 19.9908C107.134 19.9908 108.029 19.0954 108.029 17.9908V17.8714Z" fill="url(#paint8_linear_211_17437)"/>
<path d="M100.029 15.6116C100.029 14.5071 99.1339 13.6116 98.0293 13.6116C96.9247 13.6116 96.0293 14.5071 96.0293 15.6116V20.2506C96.0293 21.3551 96.9247 22.2506 98.0293 22.2506C99.1339 22.2506 100.029 21.3551 100.029 20.2506V15.6116Z" fill="url(#paint9_linear_211_17437)"/>
<path d="M92.0293 12.3982C92.0293 11.2937 91.1339 10.3982 90.0293 10.3982C88.9247 10.3982 88.0293 11.2937 88.0293 12.3982V23.464C88.0293 24.5685 88.9247 25.464 90.0293 25.464C91.1339 25.464 92.0293 24.5685 92.0293 23.464V12.3982Z" fill="url(#paint10_linear_211_17437)"/>
<path d="M84.0293 13.0641C84.0293 11.9596 83.1339 11.0641 82.0293 11.0641C80.9247 11.0641 80.0293 11.9596 80.0293 13.0641V22.7981C80.0293 23.9026 80.9247 24.7981 82.0293 24.7981C83.1339 24.7981 84.0293 23.9026 84.0293 22.7981V13.0641Z" fill="url(#paint11_linear_211_17437)"/>
<path d="M76.0293 14.4379C76.0293 13.3334 75.1339 12.4379 74.0293 12.4379C72.9247 12.4379 72.0293 13.3334 72.0293 14.4379V21.4242C72.0293 22.5288 72.9247 23.4242 74.0293 23.4242C75.1339 23.4242 76.0293 22.5288 76.0293 21.4242V14.4379Z" fill="url(#paint12_linear_211_17437)"/>
<path d="M68.0293 12.3982C68.0293 11.2937 67.1339 10.3982 66.0293 10.3982C64.9247 10.3982 64.0293 11.2937 64.0293 12.3982V23.464C64.0293 24.5685 64.9247 25.464 66.0293 25.464C67.1339 25.464 68.0293 24.5685 68.0293 23.464V12.3982Z" fill="url(#paint13_linear_211_17437)"/>
<path d="M60.0293 8.87897C60.0293 7.7744 59.1339 6.87897 58.0293 6.87897C56.9247 6.87897 56.0293 7.7744 56.0293 8.87897V26.9832C56.0293 28.0878 56.9247 28.9832 58.0293 28.9832C59.1339 28.9832 60.0293 28.0878 60.0293 26.9832V8.87897Z" fill="url(#paint14_linear_211_17437)"/>
<path d="M52.0293 5.60362C52.0293 4.49905 51.1339 3.60362 50.0293 3.60362C48.9247 3.60362 48.0293 4.49905 48.0293 5.60362V30.2586C48.0293 31.3631 48.9247 32.2586 50.0293 32.2586C51.1339 32.2586 52.0293 31.3631 52.0293 30.2586V5.60362Z" fill="url(#paint15_linear_211_17437)"/>
<path d="M44.0293 2.51025C44.0293 1.40569 43.1339 0.510254 42.0293 0.510254C40.9247 0.510254 40.0293 1.40568 40.0293 2.51025V33.3519C40.0293 34.4565 40.9247 35.3519 42.0293 35.3519C43.1339 35.3519 44.0293 34.4565 44.0293 33.3519V2.51025Z" fill="url(#paint16_linear_211_17437)"/>
<path d="M36.0293 6.75736C36.0293 5.65279 35.1339 4.75737 34.0293 4.75737C32.9247 4.75737 32.0293 5.6528 32.0293 6.75737V29.1048C32.0293 30.2094 32.9247 31.1048 34.0293 31.1048C35.1339 31.1048 36.0293 30.2094 36.0293 29.1048V6.75736Z" fill="url(#paint17_linear_211_17437)"/>
<path d="M28.0293 11.0045C28.0293 9.89991 27.1339 9.00448 26.0293 9.00448C24.9247 9.00448 24.0293 9.89991 24.0293 11.0045V24.8577C24.0293 25.9623 24.9247 26.8577 26.0293 26.8577C27.1339 26.8577 28.0293 25.9623 28.0293 24.8577V11.0045Z" fill="url(#paint18_linear_211_17437)"/>
<path d="M20.0293 13.5355C20.0293 12.431 19.1339 11.5355 18.0293 11.5355C16.9247 11.5355 16.0293 12.431 16.0293 13.5355V22.3267C16.0293 23.4312 16.9247 24.3267 18.0293 24.3267C19.1339 24.3267 20.0293 23.4312 20.0293 22.3267V13.5355Z" fill="url(#paint19_linear_211_17437)"/>
<path d="M12.0293 11.0045C12.0293 9.89991 11.1339 9.00448 10.0293 9.00448C8.92473 9.00448 8.0293 9.89991 8.0293 11.0045V24.8577C8.0293 25.9623 8.92473 26.8577 10.0293 26.8577C11.1339 26.8577 12.0293 25.9623 12.0293 24.8577V11.0045Z" fill="url(#paint20_linear_211_17437)"/>
<path d="M4.0293 7.65755C4.0293 6.55298 3.13387 5.65755 2.0293 5.65755C0.924727 5.65755 0.0292969 6.55298 0.0292969 7.65755V28.2046C0.0292969 29.3092 0.924727 30.2046 2.0293 30.2046C3.13387 30.2046 4.0293 29.3092 4.0293 28.2046V7.65755Z" fill="url(#paint21_linear_211_17437)"/>
<defs>
<linearGradient id="paint0_linear_211_17437" x1="82.6158" y1="17.9311" x2="172.029" y2="17.9311" gradientUnits="userSpaceOnUse">
<stop/>
<stop offset="1" stop-opacity="0"/>
</linearGradient>
<linearGradient id="paint1_linear_211_17437" x1="82.6158" y1="17.9311" x2="172.029" y2="17.9311" gradientUnits="userSpaceOnUse">
<stop/>
<stop offset="1" stop-opacity="0"/>
</linearGradient>
<linearGradient id="paint2_linear_211_17437" x1="82.6158" y1="17.9311" x2="172.029" y2="17.9311" gradientUnits="userSpaceOnUse">
<stop/>
<stop offset="1" stop-opacity="0"/>
</linearGradient>
<linearGradient id="paint3_linear_211_17437" x1="82.6158" y1="17.9311" x2="172.029" y2="17.9311" gradientUnits="userSpaceOnUse">
<stop/>
<stop offset="1" stop-opacity="0"/>
</linearGradient>
<linearGradient id="paint4_linear_211_17437" x1="82.6158" y1="17.9311" x2="172.029" y2="17.9311" gradientUnits="userSpaceOnUse">
<stop/>
<stop offset="1" stop-opacity="0"/>
</linearGradient>
<linearGradient id="paint5_linear_211_17437" x1="82.6158" y1="17.9311" x2="172.029" y2="17.9311" gradientUnits="userSpaceOnUse">
<stop/>
<stop offset="1" stop-opacity="0"/>
</linearGradient>
<linearGradient id="paint6_linear_211_17437" x1="82.6158" y1="17.9311" x2="172.029" y2="17.9311" gradientUnits="userSpaceOnUse">
<stop/>
<stop offset="1" stop-opacity="0"/>
</linearGradient>
<linearGradient id="paint7_linear_211_17437" x1="82.6158" y1="17.9311" x2="172.029" y2="17.9311" gradientUnits="userSpaceOnUse">
<stop/>
<stop offset="1" stop-opacity="0"/>
</linearGradient>
<linearGradient id="paint8_linear_211_17437" x1="82.6158" y1="17.9311" x2="172.029" y2="17.9311" gradientUnits="userSpaceOnUse">
<stop/>
<stop offset="1" stop-opacity="0"/>
</linearGradient>
<linearGradient id="paint9_linear_211_17437" x1="82.6158" y1="17.9311" x2="172.029" y2="17.9311" gradientUnits="userSpaceOnUse">
<stop/>
<stop offset="1" stop-opacity="0"/>
</linearGradient>
<linearGradient id="paint10_linear_211_17437" x1="82.6158" y1="17.9311" x2="172.029" y2="17.9311" gradientUnits="userSpaceOnUse">
<stop/>
<stop offset="1" stop-opacity="0"/>
</linearGradient>
<linearGradient id="paint11_linear_211_17437" x1="82.6158" y1="17.9311" x2="172.029" y2="17.9311" gradientUnits="userSpaceOnUse">
<stop/>
<stop offset="1" stop-opacity="0"/>
</linearGradient>
<linearGradient id="paint12_linear_211_17437" x1="82.6158" y1="17.9311" x2="172.029" y2="17.9311" gradientUnits="userSpaceOnUse">
<stop/>
<stop offset="1" stop-opacity="0"/>
</linearGradient>
<linearGradient id="paint13_linear_211_17437" x1="82.6158" y1="17.9311" x2="172.029" y2="17.9311" gradientUnits="userSpaceOnUse">
<stop/>
<stop offset="1" stop-opacity="0"/>
</linearGradient>
<linearGradient id="paint14_linear_211_17437" x1="82.6158" y1="17.9311" x2="172.029" y2="17.9311" gradientUnits="userSpaceOnUse">
<stop/>
<stop offset="1" stop-opacity="0"/>
</linearGradient>
<linearGradient id="paint15_linear_211_17437" x1="82.6158" y1="17.9311" x2="172.029" y2="17.9311" gradientUnits="userSpaceOnUse">
<stop/>
<stop offset="1" stop-opacity="0"/>
</linearGradient>
<linearGradient id="paint16_linear_211_17437" x1="82.6158" y1="17.9311" x2="172.029" y2="17.9311" gradientUnits="userSpaceOnUse">
<stop/>
<stop offset="1" stop-opacity="0"/>
</linearGradient>
<linearGradient id="paint17_linear_211_17437" x1="82.6158" y1="17.9311" x2="172.029" y2="17.9311" gradientUnits="userSpaceOnUse">
<stop/>
<stop offset="1" stop-opacity="0"/>
</linearGradient>
<linearGradient id="paint18_linear_211_17437" x1="82.6158" y1="17.9311" x2="172.029" y2="17.9311" gradientUnits="userSpaceOnUse">
<stop/>
<stop offset="1" stop-opacity="0"/>
</linearGradient>
<linearGradient id="paint19_linear_211_17437" x1="82.6158" y1="17.9311" x2="172.029" y2="17.9311" gradientUnits="userSpaceOnUse">
<stop/>
<stop offset="1" stop-opacity="0"/>
</linearGradient>
<linearGradient id="paint20_linear_211_17437" x1="82.6158" y1="17.9311" x2="172.029" y2="17.9311" gradientUnits="userSpaceOnUse">
<stop/>
<stop offset="1" stop-opacity="0"/>
</linearGradient>
<linearGradient id="paint21_linear_211_17437" x1="82.6158" y1="17.9311" x2="172.029" y2="17.9311" gradientUnits="userSpaceOnUse">
<stop/>
<stop offset="1" stop-opacity="0"/>
</linearGradient>
</defs>
</svg>
