<svg width="121" height="36" viewBox="0 0 121 36" fill="none" xmlns="http://www.w3.org/2000/svg">
<rect width="4" height="9.61452" rx="2" transform="matrix(-1 0 0 1 120.184 13.1239)" fill="black"/>
<rect width="4" height="15.8037" rx="2" transform="matrix(-1 0 0 1 112.184 10.0293)" fill="black"/>
<rect width="4" height="17.8532" rx="2" transform="matrix(-1 0 0 1 104.184 9.00449)" fill="black"/>
<rect width="4" height="23.1572" rx="2" transform="matrix(-1 0 0 1 96.1836 6.35248)" fill="black"/>
<rect width="4" height="31.241" rx="2" transform="matrix(-1 0 0 1 88.1836 2.31061)" fill="black"/>
<rect width="4" height="23.56" rx="2" transform="matrix(-1 0 0 1 80.1836 6.15112)" fill="black"/>
<rect width="4" height="12.2782" rx="2" transform="matrix(-1 0 0 1 72.1836 11.792)" fill="black"/>
<rect width="4" height="7.72917" rx="2" transform="matrix(-1 0 0 1 64.1836 14.0665)" fill="black"/>
<rect width="4" height="4.1194" rx="2" transform="matrix(-1 0 0 1 56.1836 15.8714)" fill="black"/>
<rect width="4" height="8.63894" rx="2" transform="matrix(-1 0 0 1 48.1836 13.6116)" fill="black"/>
<rect width="4" height="15.0657" rx="2" transform="matrix(-1 0 0 1 40.1836 10.3982)" fill="black"/>
<rect width="4" height="13.7339" rx="2" transform="matrix(-1 0 0 1 32.1836 11.0641)" fill="black"/>
<rect width="4" height="10.9863" rx="2" transform="matrix(-1 0 0 1 24.1836 12.4379)" fill="black"/>
<rect width="4" height="15.0657" rx="2" transform="matrix(-1 0 0 1 16.1836 10.3982)" fill="black"/>
<rect width="4" height="22.1043" rx="2" transform="matrix(-1 0 0 1 8.18359 6.87897)" fill="black"/>
<rect width="4" height="28.6549" rx="2" transform="matrix(-1 0 0 1 0.183594 3.60361)" fill="black"/>
</svg>
